<svg xmlns="http://www.w3.org/2000/svg" xmlns:xlink="http://www.w3.org/1999/xlink" xml:space="preserve" version="1.1" style="shape-rendering:geometricPrecision;text-rendering:geometricPrecision;image-rendering:optimizeQuality;" viewBox="0 0 846.66 1058.325" x="0px" y="0px" fill-rule="evenodd" clip-rule="evenodd"><defs><style type="text/css">
   
    .fil0 {fill:black}
   
  </style></defs><g><path class="fil0" d="M262.47 139.7l5.14 19.16 -34.28 9.19 25.08 93.62 34.29 -9.19 5.13 19.16c5.1,-1.36 10.19,-2.66 15.3,-3.91l19.49 72.76c6.16,23 30.01,36.77 52.99,30.61l45.31 -12.14 -13.25 -49.42 -36.93 9.89c-4.6,1.23 -9.37,-1.52 -10.59,-6.12l-14.61 -54.53c80.97,-14.69 162.95,-16.99 246.33,-23.8l-22.82 -85.18 34.28 -9.19 -12.1 -45.18 -34.29 9.19 -22.83 -85.18c-16.32,7.71 -32.47,15.6 -48.56,23.47l-8.16 4c-73.38,35.98 -145.54,71.53 -224.92,92.79zm482.04 333.35l-47.81 47.82 -47.83 -47.82 18.25 -18.35 16.58 16.58 0 -52.42 -247.4 0 0 52.36 16.52 -16.52 18.35 18.35 -47.84 47.84 -47.84 -47.84 18.35 -18.35 16.52 16.52 0 -52.36 -247.4 0 0 52.36 16.52 -16.52 18.35 18.35 -47.84 47.84 -47.84 -47.84 18.34 -18.35 16.52 16.52 0 -78.31 572.64 0 0 78.31 16.52 -16.52 18.34 18.35zm-47.85 229.46c-22.27,0 -63.54,1.7 -68.58,29.73l-10.87 60.4 158.92 0c-11.82,-65.63 -2.31,-90.13 -79.47,-90.13zm35.7 -31.95c31.45,5.25 60.34,19.74 66.81,55.6l18.2 101.07 -241.41 0 18.21 -101.07c6.44,-35.86 35.35,-50.35 66.8,-55.6 -18.95,-11.92 -31.59,-33.02 -31.59,-56.98 0,-37.06 30.22,-67.28 67.28,-67.28 37.07,0 67.28,30.22 67.28,67.28 0,23.96 -12.63,45.06 -31.58,56.98zm-35.7 -89.67c-18.13,0 -32.69,14.56 -32.69,32.69 0,18.13 14.55,32.69 32.69,32.69 18.15,0 32.69,-14.55 32.69,-32.69 0,-18.14 -14.55,-32.69 -32.69,-32.69zm-273.34 121.62c-22.27,0 -63.54,1.7 -68.58,29.73l-10.88 60.4 158.93 0 -10.88 -60.4c-5.04,-28.04 -46.32,-29.73 -68.59,-29.73zm35.7 -31.95c31.46,5.25 60.36,19.73 66.8,55.6l18.21 101.07 -241.4 0 18.19 -101.07c6.45,-35.86 35.35,-50.35 66.81,-55.6 -18.95,-11.92 -31.59,-33.02 -31.59,-56.98 0,-37.06 30.22,-67.28 67.28,-67.28 37.06,0 67.29,30.21 67.29,67.28 0,23.96 -12.64,45.06 -31.59,56.98zm-35.7 -89.67c-18.13,0 -32.69,14.56 -32.69,32.69 0,18.13 14.55,32.69 32.69,32.69 18.15,0 32.7,-14.54 32.7,-32.69 0,-18.14 -14.56,-32.69 -32.7,-32.69zm-273.33 121.62c-22.26,0 -63.56,1.7 -68.59,29.73l-10.88 60.4 158.92 0 -10.88 -60.4c-5.03,-28.03 -46.3,-29.73 -68.57,-29.73zm35.69 -31.95c31.45,5.25 60.36,19.74 66.8,55.6l18.22 101.07 -241.41 0 18.19 -101.07c6.45,-35.86 35.36,-50.35 66.81,-55.6 -18.95,-11.92 -31.58,-33.02 -31.58,-56.98 0,-37.06 30.21,-67.28 67.28,-67.28 37.06,0 67.28,30.22 67.28,67.28 0,23.96 -12.64,45.06 -31.59,56.98zm-35.69 -89.67c-18.14,0 -32.69,14.56 -32.69,32.69 0,18.13 14.54,32.69 32.69,32.69 18.14,0 32.69,-14.55 32.69,-32.69 0,-18.14 -14.56,-32.69 -32.69,-32.69z"/></g><text x="0" y="861.66" fill="#000000" font-size="5px" font-weight="bold" font-family="'Helvetica Neue', Helvetica, Arial-Unicode, Arial, Sans-serif">Created by callorine</text><text x="0" y="866.66" fill="#000000" font-size="5px" font-weight="bold" font-family="'Helvetica Neue', Helvetica, Arial-Unicode, Arial, Sans-serif">from the Noun Project</text></svg>