<?xml version="1.0" standalone="no"?>
<!DOCTYPE svg PUBLIC "-//W3C//DTD SVG 20010904//EN"
 "http://www.w3.org/TR/2001/REC-SVG-20010904/DTD/svg10.dtd">
<svg version="1.0" xmlns="http://www.w3.org/2000/svg"
 width="84.000000pt" height="87.000000pt" viewBox="0 0 84.000000 87.000000"
 preserveAspectRatio="xMidYMid meet">
<metadata>
Created by potrace 1.15, written by Peter Selinger 2001-2017
</metadata>
<g transform="translate(0.000000,87.000000) scale(0.100000,-0.100000)"
fill="#000000" stroke="none">
<path d="M580 787 c0 -33 -10 -40 -31 -21 -14 12 -22 13 -38 4 -23 -12 -27
-25 -11 -35 22 -14 10 -35 -20 -35 -16 0 -30 -4 -30 -9 0 -5 -3 -16 -6 -24 -3
-10 2 -18 15 -22 27 -8 27 -35 0 -35 -16 0 -20 -5 -17 -27 2 -21 9 -28 25 -28
32 -1 39 -12 20 -33 -15 -16 -15 -21 -3 -37 12 -16 18 -17 40 -7 28 12 40 3
30 -23 -5 -12 -9 -13 -14 -4 -6 9 -15 9 -40 0 -18 -6 -37 -8 -42 -5 -10 6 -7
34 6 64 4 11 -3 21 -24 34 -31 18 -31 18 -51 -8 -11 -14 -29 -26 -40 -26 -15
0 -19 7 -19 36 0 35 -1 35 -37 32 -35 -3 -38 -6 -41 -35 -4 -41 -32 -44 -60
-7 -20 29 -17 29 -80 -12 -2 -1 3 -16 12 -32 13 -26 13 -32 1 -42 -10 -8 -19
-8 -34 -1 -31 17 -47 13 -60 -16 -12 -25 -10 -30 14 -51 32 -27 27 -49 -12
-54 -24 -3 -28 -8 -31 -40 -3 -36 -2 -38 28 -38 43 0 51 -27 17 -54 -32 -25
-32 -29 -11 -61 15 -23 18 -24 49 -11 45 19 59 5 40 -41 -14 -32 -13 -33 17
-49 31 -16 32 -16 53 10 27 34 55 26 55 -15 0 -27 3 -29 40 -29 37 0 40 2 40
29 0 42 29 50 57 14 22 -27 23 -28 50 -11 17 11 27 24 25 35 -9 52 -7 58 18
57 14 0 31 -3 39 -5 8 -2 21 9 30 24 15 27 15 29 -10 50 -35 30 -28 57 17 57
32 0 34 2 34 34 0 34 -13 46 -50 46 -26 0 -34 30 -13 46 10 7 21 14 26 14 4 0
7 9 7 19 0 14 5 18 19 14 13 -3 23 2 30 16 16 28 29 26 37 -5 4 -17 11 -23 21
-20 8 3 19 6 24 6 5 0 9 11 9 25 0 28 11 31 40 13 28 -18 57 10 41 40 -16 31
-14 35 18 29 24 -5 30 -2 35 16 8 32 8 34 -14 40 -11 3 -20 10 -20 17 0 7 9
14 20 17 13 3 20 14 20 29 0 19 -5 24 -25 24 -28 0 -31 11 -13 40 10 16 10 23
-5 37 -15 15 -21 16 -38 5 -25 -16 -39 -8 -32 19 10 36 -41 55 -52 19 -3 -11
-12 -20 -20 -20 -7 0 -15 9 -18 20 -3 14 -14 20 -31 20 -21 0 -26 -5 -26 -23z
m-247 -408 c63 -32 77 -111 28 -160 -85 -85 -224 31 -150 125 34 43 80 56 122
35z"/>
</g>
</svg>
