<?xml version="1.0" standalone="no"?>
<!DOCTYPE svg PUBLIC "-//W3C//DTD SVG 20010904//EN"
 "http://www.w3.org/TR/2001/REC-SVG-20010904/DTD/svg10.dtd">
<svg version="1.0" xmlns="http://www.w3.org/2000/svg"
 width="200.000000pt" height="200.000000pt" viewBox="0 0 200.000000 200.000000"
 preserveAspectRatio="xMidYMid meet">
<metadata>
Created by potrace 1.15, written by Peter Selinger 2001-2017
</metadata>
<g transform="translate(0.000000,200.000000) scale(0.100000,-0.100000)"
fill="#000000" stroke="none">
<path d="M935 1904 c-191 -28 -346 -96 -470 -206 -56 -50 -68 -81 -43 -106 22
-22 48 -13 106 36 179 148 371 208 585 182 109 -14 130 -7 125 39 -2 20 -12
29 -40 38 -39 13 -214 24 -263 17z"/>
<path d="M1317 1802 c-14 -16 -17 -43 -17 -173 0 -85 4 -159 8 -165 11 -16 48
-34 71 -34 19 0 21 -6 21 -55 0 -30 4 -55 8 -55 4 0 32 24 61 54 l54 55 179 3
c164 3 181 5 194 22 11 15 14 57 14 176 0 139 -2 159 -18 173 -16 15 -51 17
-289 17 -249 0 -271 -1 -286 -18z"/>
<path d="M316 1518 c-8 -13 -22 -40 -32 -60 -10 -23 -25 -38 -35 -38 -45 0
-49 -8 -49 -101 0 -79 2 -89 18 -89 10 0 31 -13 47 -30 28 -30 30 -30 137 -30
l108 0 0 119 c0 133 1 131 -76 131 l-44 0 0 54 c0 40 -4 55 -16 60 -28 11 -43
6 -58 -16z"/>
<path d="M47 1423 c-4 -7 4 -66 28 -200 6 -32 7 -33 60 -33 l55 0 0 120 0 120
-69 0 c-39 0 -72 -3 -74 -7z"/>
<path d="M1762 1349 c-29 -11 -28 -35 3 -120 86 -239 34 -509 -139 -722 -54
-66 -132 -126 -233 -180 -81 -43 -100 -70 -73 -103 19 -22 46 -17 130 27 155
80 278 206 356 364 64 129 86 224 87 370 0 126 -15 213 -54 312 -21 53 -40 66
-77 52z"/>
<path d="M832 1256 c-35 -33 -37 -38 -37 -96 0 -58 2 -63 37 -96 33 -30 44
-34 92 -34 60 0 96 21 121 70 30 57 12 127 -41 169 -20 15 -41 21 -80 21 -48
0 -59 -4 -92 -34z"/>
<path d="M1139 1161 c-66 -66 -20 -171 75 -171 68 0 101 32 101 100 0 44 -4
55 -28 76 -42 36 -109 34 -148 -5z"/>
<path d="M174 1090 c-28 -11 -35 -81 -22 -210 11 -109 44 -216 95 -310 79
-145 218 -284 277 -278 26 3 31 8 34 33 2 26 -5 37 -54 78 -119 100 -211 248
-248 399 -9 38 -18 114 -19 169 -2 89 -4 103 -22 114 -13 8 -28 10 -41 5z"/>
<path d="M844 991 c-62 -38 -114 -135 -114 -213 l0 -28 195 0 c188 0 195 1
195 20 0 19 7 20 121 20 l121 0 -7 38 c-10 52 -45 112 -77 128 -15 8 -47 14
-72 14 -39 0 -51 -5 -81 -36 -20 -20 -37 -34 -39 -32 -26 41 -63 81 -86 93
-41 21 -118 19 -156 -4z"/>
<path d="M636 474 c-13 -13 -16 -44 -16 -185 0 -98 4 -179 10 -190 10 -18 24
-19 293 -19 207 0 286 3 295 12 17 17 17 369 0 386 -9 9 -87 12 -289 12 -239
0 -280 -2 -293 -16z m176 -118 l116 -78 120 81 c67 45 124 81 127 81 3 0 5 -6
5 -12 0 -7 -57 -50 -126 -96 l-126 -84 -130 87 c-71 47 -126 90 -122 96 8 13
2 16 136 -75z"/>
</g>
</svg>
