<?xml version="1.0" standalone="no"?>
<!DOCTYPE svg PUBLIC "-//W3C//DTD SVG 20010904//EN"
        "http://www.w3.org/TR/2001/REC-SVG-20010904/DTD/svg10.dtd">
<svg id="sales" version="1.0" xmlns="http://www.w3.org/2000/svg"
     width="300.000000pt" height="300.000000pt" viewBox="0 0 340.000000 340.000000" preserveAspectRatio="xMidYMid meet">
    <g transform="translate(0.000000,300.000000) scale(0.140000,-0.140000)" stroke="none">
        <path d="M3878 5115 c-2 -2 -15 -6 -28 -9 -54 -11 -67 -15 -110 -32 -177 -71
-340 -223 -424 -394 -31 -63 -63 -157 -58 -172 1 -5 -2 -8 -6 -8 -5 0 -8 -14
-7 -30 1 -17 -1 -32 -4 -34 -3 -2 -5 -42 -3 -88 4 -135 6 -158 16 -158 5 0 7
-3 4 -6 -4 -3 -2 -20 4 -37 5 -18 10 -36 12 -42 1 -5 10 -27 19 -49 9 -21 17
-42 17 -46 0 -4 22 -41 49 -81 51 -79 160 -190 226 -231 58 -36 155 -88 155
-83 0 2 20 -4 45 -15 25 -11 49 -19 53 -19 4 1 12 0 17 -1 12 -2 310 -2 310 0
0 1 11 4 60 14 6 1 16 5 23 9 6 5 12 6 12 3 0 -2 37 14 82 36 127 62 231 152
318 277 25 36 101 181 94 181 -2 0 1 12 7 28 17 44 22 90 23 222 0 139 -3 162
-33 237 -80 201 -186 331 -355 433 -36 22 -68 40 -70 40 -3 0 -17 5 -33 12
-15 6 -31 12 -35 13 -5 2 -9 3 -10 5 -2 1 -10 3 -18 5 -8 2 -28 6 -45 10 -32
8 -300 17 -307 10z m222 -189 c14 -2 35 -7 48 -10 12 -3 32 -8 45 -11 74 -16
201 -97 265 -170 38 -43 119 -185 105 -185 -3 0 -1 -6 5 -13 11 -13 19 -43 30
-112 35 -222 -79 -464 -276 -585 -60 -37 -147 -69 -194 -72 -18 -1 -37 -3 -41
-6 -8 -4 -133 -5 -139 -2 -2 1 -14 3 -28 5 -67 9 -101 19 -175 55 -83 41 -134
82 -197 161 -40 48 -98 164 -101 198 -1 12 -4 21 -8 21 -11 0 -15 138 -7 235
15 168 150 354 318 437 75 38 99 45 175 55 22 2 42 7 45 10 5 5 73 -1 130 -11z"/>
        <path d="M3989 4793 c-6 -19 -9 -43 -6 -53 5 -19 -18 -48 -29 -37 -12 11 -100
-51 -128 -90 -42 -60 -45 -118 -12 -187 26 -52 29 -55 142 -112 63 -32 119
-65 123 -73 22 -44 -1 -107 -42 -119 -27 -7 -161 -9 -177 -3 -42 18 -67 3 -76
-45 -3 -15 -7 -31 -9 -35 -14 -22 94 -58 188 -62 13 -1 17 -10 17 -38 0 -59 7
-69 51 -69 l39 0 1 45 c1 25 2 50 3 57 0 6 27 27 58 45 86 50 117 105 114 199
-4 105 -35 140 -184 203 -66 28 -91 44 -105 68 -17 29 -17 34 -3 61 15 29 67
59 84 48 9 -6 103 -18 136 -17 23 0 34 15 42 59 8 39 -4 54 -43 58 -15 1 -28
3 -28 4 0 1 -7 3 -16 5 -48 9 -55 15 -56 51 -2 69 -64 96 -84 37z"/>
        <path d="M103 4496 c-17 -8 -45 -27 -62 -42 l-31 -27 0 -2174 0 -2174 36 -37
36 -37 2363 -3 c2338 -3 2365 -3 2409 17 99 43 111 188 20 247 -15 11 -55 19
-102 22 -42 3 -1067 7 -2277 9 -1209 2 -2200 5 -2201 6 -2 1 -5 891 -7 1977
-5 1717 -8 2125 -17 2125 -1 0 -3 8 -5 18 -7 37 -15 47 -51 62 -58 24 -76 26
-111 11z"/>
        <path d="M2450 3830 c-75 -14 -120 -63 -130 -140 -5 -38 -1 -53 20 -90 36 -61
94 -91 183 -94 9 0 17 -1 17 -3 0 -2 -86 -74 -215 -182 -11 -9 -52 -43 -90
-76 -39 -33 -91 -76 -115 -95 -24 -19 -48 -40 -54 -45 -6 -6 -67 -57 -136
-114 -69 -56 -136 -112 -150 -124 -31 -27 -225 -191 -260 -220 -14 -11 -41
-34 -61 -51 -19 -17 -55 -47 -80 -68 -24 -20 -55 -46 -69 -58 -14 -12 -47 -40
-74 -63 -27 -23 -54 -47 -60 -52 -6 -6 -33 -28 -60 -50 -27 -22 -61 -51 -75
-65 -15 -14 -73 -65 -129 -114 -56 -48 -102 -92 -102 -97 0 -18 -2 -24 -12
-36 -6 -7 -7 -21 -3 -30 5 -10 9 -24 11 -30 12 -59 94 -127 154 -128 45 -1
115 48 335 233 11 9 65 54 120 100 55 46 111 93 125 105 38 34 92 79 137 115
23 18 54 44 70 58 15 14 71 59 123 102 52 42 102 84 111 92 9 8 27 24 40 35
13 11 83 69 155 130 71 60 149 125 172 143 22 19 50 42 62 52 12 10 39 33 62
52 23 18 46 38 52 43 6 6 59 50 118 98 l106 86 -1 -63 c-2 -57 2 -69 28 -107
17 -24 44 -50 60 -59 17 -8 31 -17 32 -20 2 -3 21 -4 43 -4 81 2 142 67 156
164 3 25 7 54 9 65 1 11 3 20 5 20 1 0 3 18 4 40 1 22 4 45 7 50 3 6 5 30 4
55 -1 25 1 50 4 55 9 15 7 238 -1 250 -50 67 -84 91 -148 101 -67 11 -168 20
-310 28 -63 4 -124 8 -135 10 -11 2 -36 0 -55 -4z"/>
        <path d="M3555 1913 c4 -720 8 -1309 9 -1309 0 -1 198 -5 439 -9 l437 -7 0
1316 0 1316 -446 0 -446 0 7 -1307z"/>
        <path d="M2126 1862 c-4 -269 -4 -662 0 -874 l7 -385 321 -6 c177 -4 374 -7
439 -7 l117 0 0 880 0 880 -438 0 -439 0 -7 -488z"/>
        <path d="M693 1025 c0 -229 3 -417 6 -419 3 -2 203 -7 444 -11 l437 -8 0 427
0 426 -444 0 -444 0 1 -415z"/>
    </g>
</svg>
