<?xml version="1.0" standalone="no"?>
<!DOCTYPE svg PUBLIC "-//W3C//DTD SVG 20010904//EN"
 "http://www.w3.org/TR/2001/REC-SVG-20010904/DTD/svg10.dtd">
<svg version="1.0" xmlns="http://www.w3.org/2000/svg"
 width="512.000000pt" height="512.000000pt" viewBox="0 0 512.000000 512.000000"
 preserveAspectRatio="xMidYMid meet">
<metadata>
Created by potrace 1.15, written by Peter Selinger 2001-2017
</metadata>
<g transform="translate(0.000000,512.000000) scale(0.100000,-0.100000)"
fill="#000000" stroke="none">
<path d="M203 4958 c-174 -172 -196 -198 -191 -231 3 -19 32 5 192 163 103
102 192 193 197 203 8 14 5 17 -17 17 -21 0 -60 -33 -181 -152z"/>
<path d="M303 4858 c-140 -139 -264 -265 -275 -281 -10 -15 -18 -37 -16 -50 3
-18 49 23 292 263 158 157 292 293 297 303 8 14 5 17 -17 17 -22 0 -75 -47
-281 -252z"/>
<path d="M402 4758 c-194 -194 -362 -365 -373 -381 -11 -15 -19 -37 -17 -50 4
-18 67 40 392 363 213 212 392 393 397 403 8 14 5 17 -18 17 -22 0 -89 -62
-381 -352z"/>
<path d="M502 4658 c-249 -249 -462 -465 -473 -481 -11 -15 -19 -37 -17 -50 4
-18 84 57 492 463 268 267 492 493 497 503 8 14 5 17 -18 17 -22 0 -104 -76
-481 -452z"/>
<path d="M602 4558 c-304 -304 -562 -565 -573 -581 -11 -15 -19 -37 -17 -50 4
-18 101 75 592 563 323 322 592 593 597 603 8 14 5 17 -18 17 -23 0 -118 -91
-581 -552z"/>
<path d="M702 4458 c-359 -359 -662 -665 -673 -681 -11 -15 -19 -37 -17 -50 4
-18 118 92 692 663 378 377 692 693 697 703 8 14 5 17 -18 17 -23 0 -133 -106
-681 -652z"/>
<path d="M802 4358 c-414 -414 -762 -765 -773 -781 -11 -15 -19 -37 -17 -50 4
-18 136 109 792 763 433 432 792 793 797 803 8 14 5 17 -18 17 -23 0 -148
-120 -781 -752z"/>
<path d="M902 4258 c-469 -469 -862 -865 -873 -881 -11 -15 -19 -37 -17 -50 4
-18 153 126 892 863 488 487 892 893 897 903 8 14 5 17 -18 17 -23 0 -162
-135 -881 -852z"/>
<path d="M1002 4158 c-524 -524 -962 -965 -973 -981 -11 -15 -19 -37 -17 -50
4 -18 170 144 992 963 543 542 992 993 997 1003 8 14 5 17 -18 17 -23 0 -177
-149 -981 -952z"/>
<path d="M1102 4058 c-579 -579 -1062 -1065 -1073 -1081 -11 -15 -19 -37 -17
-50 4 -18 123 96 717 688 522 520 701 692 668 645 -25 -36 -67 -106 -92 -155
-46 -89 -53 -97 -671 -715 -519 -520 -624 -630 -624 -653 0 -15 3 -27 7 -27 4
0 276 269 605 597 l597 597 -19 -63 c-11 -35 -20 -72 -20 -84 0 -15 -179 -201
-585 -607 -485 -486 -585 -591 -585 -613 0 -15 3 -27 7 -27 4 0 234 226 510
502 l503 503 0 -65 0 -65 -510 -510 c-422 -423 -510 -515 -510 -538 0 -15 3
-27 7 -27 4 0 234 226 510 502 l503 503 0 -65 0 -65 -510 -510 c-422 -423
-510 -515 -510 -538 0 -15 3 -27 7 -27 4 0 234 226 510 502 l503 503 0 -65 0
-65 -510 -510 c-422 -423 -510 -515 -510 -538 0 -15 3 -27 7 -27 4 0 238 231
520 512 282 282 513 508 513 502 0 -6 12 -24 26 -39 l26 -28 -546 -546 c-456
-457 -546 -551 -546 -574 0 -23 3 -26 18 -18 9 5 267 260 572 565 l555 556 51
0 c28 0 54 -3 58 -7 4 -4 -277 -291 -624 -638 -524 -524 -630 -635 -630 -658
0 -15 3 -27 7 -27 4 0 292 284 639 631 l632 632 22 -43 22 -43 -661 -661
c-550 -551 -661 -666 -661 -689 0 -15 3 -27 7 -27 4 0 307 300 674 666 l666
666 21 -37 c12 -20 22 -39 22 -43 0 -4 -313 -320 -695 -702 -583 -584 -695
-700 -695 -723 0 -23 3 -26 18 -18 9 5 329 323 711 705 l695 695 27 -37 28
-37 -739 -740 c-617 -618 -740 -745 -740 -768 0 -15 3 -27 7 -27 4 0 174 165
377 368 203 202 356 350 338 330 -49 -59 -108 -150 -153 -235 -36 -70 -69
-107 -305 -344 -213 -214 -264 -271 -264 -292 0 -15 3 -27 7 -27 4 0 115 107
246 238 132 130 237 229 234 220 -3 -9 -12 -45 -18 -80 l-13 -63 -228 -231
c-182 -185 -228 -236 -228 -257 0 -15 3 -27 7 -27 4 0 104 97 223 215 l216
216 12 -52 12 -53 -235 -236 c-189 -190 -235 -242 -235 -263 0 -15 3 -27 7
-27 4 0 116 109 250 242 l243 243 32 -33 32 -32 -282 -283 c-229 -230 -282
-289 -282 -310 0 -15 3 -27 7 -27 4 0 141 133 303 296 l297 295 36 -21 c21
-12 37 -25 37 -29 0 -3 -138 -143 -306 -311 -168 -168 -310 -313 -315 -322 -8
-15 -5 -18 17 -18 23 0 84 56 343 315 l316 314 35 -21 c19 -12 37 -23 39 -25
3 -2 -122 -131 -277 -286 -155 -156 -282 -286 -282 -290 0 -4 12 -7 27 -7 21
0 80 53 308 281 l282 280 39 -18 c21 -9 41 -19 43 -20 3 -2 -108 -117 -247
-256 -139 -139 -252 -256 -252 -260 0 -4 12 -7 27 -7 21 0 75 49 278 250 l252
251 46 -18 47 -19 -216 -214 c-118 -118 -220 -223 -225 -233 -8 -14 -5 -17 17
-17 22 0 71 43 253 224 l226 224 48 -17 47 -16 -191 -190 c-104 -105 -195
-198 -200 -207 -8 -15 -5 -18 17 -18 22 0 67 40 229 200 l201 200 53 -12 52
-12 -181 -181 c-99 -100 -180 -184 -180 -188 0 -4 12 -7 26 -7 21 0 65 38 209
180 l182 181 52 -12 53 -11 -161 -162 c-89 -89 -161 -165 -161 -169 0 -4 12
-7 26 -7 21 0 63 36 193 164 l166 164 53 -10 53 -11 -145 -147 c-80 -80 -146
-150 -146 -153 0 -4 12 -7 26 -7 21 0 60 33 178 150 l151 149 58 -6 58 -6
-135 -137 c-75 -75 -136 -140 -136 -143 0 -4 12 -7 26 -7 20 0 59 32 168 140
l141 139 58 -6 58 -6 -125 -127 c-69 -70 -126 -130 -126 -133 0 -4 12 -7 26
-7 20 0 57 31 158 130 l132 130 64 0 64 0 -122 -123 c-67 -68 -122 -127 -122
-130 0 -4 12 -7 26 -7 20 0 56 30 153 125 l128 125 63 0 64 0 -117 -118 c-64
-66 -117 -122 -117 -125 0 -4 12 -7 26 -7 20 0 56 30 153 125 l128 125 63 0
64 0 -117 -118 c-64 -66 -117 -122 -117 -125 0 -4 12 -7 26 -7 19 0 58 32 159
130 l133 130 63 0 63 0 -122 -123 c-67 -68 -122 -127 -122 -130 0 -4 12 -7 26
-7 20 0 58 31 163 134 l136 133 68 6 69 5 -131 -132 c-72 -73 -131 -136 -131
-139 0 -4 12 -7 26 -7 20 0 59 32 171 142 l144 143 75 11 75 10 -146 -146
c-80 -81 -145 -150 -145 -153 0 -4 12 -7 26 -7 21 0 62 35 188 160 162 160
162 160 222 171 32 5 68 13 79 16 11 3 -55 -71 -147 -164 -93 -93 -168 -172
-168 -176 0 -4 12 -7 26 -7 21 0 66 39 214 185 l187 186 87 23 88 23 -201
-201 c-111 -111 -201 -205 -201 -209 0 -4 12 -7 27 -7 21 0 71 45 252 224
l226 225 80 29 c44 16 89 33 100 37 11 4 -94 -107 -232 -247 -139 -139 -253
-257 -253 -261 0 -4 12 -7 27 -7 22 0 82 55 322 293 248 247 307 300 366 332
194 104 254 162 276 263 12 56 15 60 241 288 184 186 228 236 228 258 0 22 -3
25 -17 17 -10 -5 -112 -105 -228 -220 -115 -116 -213 -211 -216 -211 -4 0 -9
23 -13 52 l-7 51 240 242 c194 194 241 247 241 268 0 15 -3 27 -7 27 -4 0
-116 -108 -249 -241 -133 -133 -244 -237 -246 -233 -3 5 -11 26 -18 47 l-12
39 266 267 c217 218 266 273 266 295 0 22 -3 25 -17 17 -10 -5 -133 -125 -273
-265 -140 -141 -258 -256 -261 -256 -3 0 -14 18 -24 40 l-18 41 296 298 c241
242 297 302 297 324 0 15 -3 27 -7 27 -4 0 -143 -136 -310 -302 -166 -166
-304 -300 -306 -297 -2 2 -14 19 -27 37 l-23 34 337 337 c274 275 336 342 336
364 0 15 -3 27 -7 27 -4 0 -162 -154 -351 -343 l-343 -342 -30 35 -29 34 380
381 c314 315 380 386 380 408 0 23 -3 26 -17 18 -10 -5 -189 -181 -398 -390
l-379 -381 -33 32 -33 32 430 431 c354 355 430 436 430 458 0 15 -3 27 -7 27
-4 0 -206 -198 -448 -440 l-440 -439 -35 29 -35 29 483 483 c401 403 482 488
482 511 0 23 -3 26 -17 18 -10 -5 -236 -228 -502 -495 l-485 -485 -37 27 -38
27 539 540 c451 452 540 545 540 568 0 23 -3 26 -17 18 -10 -5 -261 -253 -558
-550 -297 -298 -543 -541 -547 -541 -4 0 -23 10 -43 21 l-37 22 601 601 c503
504 601 606 601 629 0 23 -3 26 -17 18 -10 -5 -290 -282 -622 -614 l-604 -605
-44 21 -43 21 665 666 c554 554 665 670 665 693 0 15 -3 27 -7 27 -4 0 -314
-306 -689 -681 l-681 -681 -43 22 -43 22 732 732 c614 615 731 736 731 759 0
23 -3 26 -17 18 -10 -5 -349 -341 -753 -745 -404 -405 -740 -736 -746 -736 -6
0 -29 7 -49 16 l-38 16 801 802 c670 669 802 806 802 829 0 15 -3 27 -7 27 -4
0 -377 -369 -828 -819 l-820 -819 -48 17 -47 16 287 287 c192 192 303 295 333
310 33 17 51 35 68 68 15 31 181 204 542 565 431 431 520 525 520 548 0 15 -3
27 -7 27 -4 0 -238 -231 -520 -512 l-513 -513 0 65 0 65 520 520 c431 431 520
525 520 548 0 15 -3 27 -7 27 -4 0 -238 -231 -520 -512 l-513 -513 0 65 0 65
520 520 c434 435 520 525 520 548 0 23 -3 26 -17 18 -10 -5 -243 -235 -518
-511 l-500 -500 -11 52 -11 53 529 530 c440 443 528 535 528 558 0 23 -3 26
-17 18 -10 -5 -254 -246 -542 -535 l-525 -525 -24 20 c-14 10 -34 19 -46 19
-15 0 150 171 567 588 487 488 587 592 587 615 0 15 -3 27 -7 27 -4 0 -269
-262 -589 -581 l-582 -582 -11 54 -12 53 601 601 c502 503 600 605 600 628 0
23 -3 26 -17 18 -10 -5 -283 -275 -608 -600 l-589 -590 -18 47 -18 47 570 570
c314 314 570 574 570 578 0 4 -12 7 -27 7 -23 0 -121 -94 -579 -551 l-552
-552 -22 43 -22 43 501 501 c276 276 501 505 501 509 0 4 -12 7 -27 7 -22 0
-111 -84 -513 -485 l-485 -484 -24 41 -23 41 436 436 c240 240 436 440 436
444 0 4 -12 7 -27 7 -22 0 -102 -75 -450 -422 l-423 -423 -25 30 c-13 17 -24
35 -25 40 0 6 165 174 366 375 201 201 370 373 375 383 8 14 5 17 -18 17 -22
0 -91 -64 -395 -367 l-368 -367 -29 34 -30 35 325 325 c178 179 324 329 324
333 0 4 -12 7 -27 7 -22 0 -85 -58 -342 -314 l-316 -314 -35 29 -34 29 277
278 c152 153 277 281 277 285 0 4 -12 7 -27 7 -21 0 -78 -52 -297 -269 l-271
-269 -37 28 -36 27 224 224 c124 123 230 232 235 242 8 14 5 17 -17 17 -22 0
-71 -43 -254 -225 -124 -124 -229 -225 -232 -225 -4 0 -23 10 -43 21 l-36 22
195 196 c108 109 196 200 196 204 0 4 -12 7 -26 7 -21 0 -67 -40 -220 -192
l-193 -191 -41 18 c-22 10 -40 21 -40 24 0 4 68 74 151 156 83 83 155 158 160
168 8 14 5 17 -17 17 -21 0 -61 -34 -189 -160 l-162 -161 -47 12 c-25 6 -46
14 -46 18 0 3 57 62 126 131 145 145 157 160 118 160 -20 0 -58 -31 -168 -139
l-141 -139 -52 11 -53 12 111 110 c130 129 141 145 103 145 -20 0 -55 -29
-153 -125 l-128 -126 -57 7 -57 7 110 112 c61 62 111 115 111 118 0 4 -12 7
-26 7 -20 0 -55 -29 -147 -119 l-122 -119 -70 -7 -70 -7 118 119 c64 66 117
123 117 126 0 4 -12 7 -26 7 -20 0 -58 -31 -161 -132 l-134 -133 -86 -21 -85
-22 146 147 c80 81 146 151 146 154 0 4 -12 7 -26 7 -21 0 -65 -38 -208 -178
-155 -154 -192 -184 -256 -216 -41 -21 -109 -60 -150 -88 -70 -46 -57 -32 183
209 141 142 257 262 257 266 0 4 -12 7 -27 7 -23 0 -198 -170 -1081 -1052z
m1387 587 c-81 -82 -88 -87 -150 -100 -35 -7 -73 -17 -84 -21 -11 -3 25 39 79
94 106 107 99 104 211 110 28 2 25 -2 -56 -83z m231 69 l32 -7 -68 -68 -68
-69 -65 0 -65 0 74 75 c78 78 88 83 160 69z m-479 -118 c-83 -83 -138 -129
-200 -166 -168 -99 -299 -231 -397 -399 -56 -97 -350 -397 -339 -346 33 147
-7 98 459 564 l424 424 69 18 c37 9 75 18 83 18 8 1 -37 -50 -99 -113z m661
75 c4 -4 -21 -35 -55 -69 l-63 -63 -53 12 -53 11 67 68 67 67 41 -10 c23 -5
45 -13 49 -16z m116 -38 l43 -16 -61 -62 -62 -63 -49 16 -49 16 62 63 c34 35
65 63 67 63 3 0 25 -7 49 -17z m-948 -6 c0 -1 -156 -157 -346 -347 l-346 -345
37 75 c65 131 138 230 257 346 120 118 193 172 316 235 76 39 82 41 82 36z
m1082 -58 l41 -21 -59 -59 c-32 -32 -62 -59 -68 -59 -5 0 -24 10 -43 21 l-35
22 58 58 c32 33 60 59 62 59 1 0 21 -9 44 -21z m131 -82 l29 -20 -58 -58 c-32
-33 -63 -59 -69 -59 -5 1 -23 12 -40 25 l-30 25 59 59 c33 33 64 57 70 54 6
-4 24 -15 39 -26z m105 -85 l33 -27 -63 -62 -63 -62 -34 31 -33 30 58 59 c32
32 61 59 64 59 3 0 20 -13 38 -28z m122 -132 c0 -3 -28 -34 -63 -68 l-62 -62
-29 36 -28 36 63 64 64 65 27 -33 c15 -18 28 -35 28 -38z m72 -87 l17 -29 -68
-68 -68 -68 -22 37 c-11 20 -21 39 -21 43 0 3 28 35 62 69 65 66 70 67 100 16z
m84 -137 c5 -14 -11 -36 -62 -87 -38 -38 -71 -69 -75 -69 -4 0 -14 19 -23 42
l-17 41 68 69 68 68 17 -22 c10 -13 20 -31 24 -42z m64 -146 c0 -9 -35 -51
-79 -94 l-79 -78 -12 52 -12 52 73 74 73 74 18 -33 c9 -17 17 -39 18 -47z
m-2190 -122 c-10 -35 -21 -74 -24 -88 -3 -14 -34 -53 -68 -87 l-63 -63 -29 36
-29 36 114 114 c63 63 114 114 115 114 1 0 -6 -28 -16 -62z m2229 5 l12 -47
-89 -89 -90 -90 -7 57 -8 58 79 79 c43 43 81 79 85 79 4 0 12 -21 18 -47z m31
-132 c0 -10 -18 -36 -39 -58 -30 -29 -41 -50 -46 -85 -6 -38 -16 -55 -61 -99
l-54 -53 0 64 0 65 92 92 c51 51 96 93 100 93 5 0 8 -8 8 -19z m-168 -464
l-80 -80 20 84 c18 78 23 88 76 142 l57 58 3 -63 3 -62 -79 -79z m-2094 -34
l11 -48 -83 -83 -82 -83 4 68 c4 68 4 68 65 131 34 34 64 62 68 62 3 0 11 -21
17 -47z m1600 -660 c-315 -315 -577 -573 -583 -573 -5 0 -23 12 -39 26 l-29
26 229 230 c182 182 241 236 289 260 193 98 377 281 470 468 17 35 63 91 128
158 l102 103 3 -63 3 -62 -573 -573z m-1611 390 c-45 -46 -84 -83 -88 -83 -3
0 -14 18 -24 41 l-19 40 85 85 84 84 22 -42 22 -43 -82 -82z m1926 -275 l-287
-288 -38 6 c-34 6 -43 1 -130 -66 -77 -60 -24 -3 307 328 l399 401 18 -47 18
-47 -287 -287z m-1796 264 l22 -39 -84 -83 c-47 -46 -86 -82 -89 -79 -2 2 -13
20 -25 39 l-21 35 82 82 c46 46 85 83 88 83 3 0 15 -17 27 -38z m2137 -21 c3
-5 22 -12 43 -16 l36 -7 -277 -277 -278 -278 -50 15 -49 16 278 278 c153 153
281 278 285 278 4 0 9 -4 12 -9z m-2058 -97 l27 -35 -83 -84 c-81 -81 -85 -84
-103 -67 -47 42 -45 49 44 138 46 46 85 84 86 84 1 0 14 -16 29 -36z m99 -104
l29 -31 -87 -87 -87 -87 -32 33 -33 32 85 85 c47 47 87 85 90 85 4 0 19 -14
35 -30z m110 -95 l30 -25 -60 -60 c-37 -37 -68 -60 -82 -60 -12 0 -34 -5 -49
-10 -19 -8 -30 -7 -41 1 -12 10 0 26 69 96 45 46 87 83 93 83 5 -1 23 -12 40
-25z m259 -140 c20 -8 36 -16 36 -18 0 -1 -51 -53 -112 -115 l-113 -112 2 67
1 66 63 63 c35 35 69 64 75 64 6 0 28 -7 48 -15z m-768 -220 c-128 -127 -168
-160 -260 -215 -59 -36 -147 -96 -195 -133 -67 -54 -18 0 227 245 l314 315 32
-31 32 -31 -150 -150z m1210 6 l-199 -199 -34 25 c-18 14 -33 28 -33 32 0 4
69 75 153 159 125 124 159 152 183 153 16 0 49 6 74 13 25 8 47 14 50 15 3 0
-85 -89 -194 -198z m-273 171 l38 -7 -95 -94 -94 -94 -27 21 c-31 25 -45 21
-45 -11 0 -36 -45 -122 -85 -162 -46 -45 -127 -85 -175 -85 -34 0 -31 4 185
220 145 145 227 220 240 219 11 0 37 -3 58 -7z m98 -146 c-80 -80 -139 -132
-146 -128 -6 4 -23 16 -38 27 l-26 20 107 108 107 107 65 0 65 0 -134 -134z
m-798 21 c-6 -22 -80 -107 -95 -107 -4 0 -8 9 -8 20 0 20 -1 20 -37 4 -88 -37
-88 -35 1 55 l89 90 28 -20 c20 -14 26 -25 22 -42z m956 -612 l11 -40 -104
-104 -105 -104 21 84 c20 80 24 87 86 151 37 37 69 64 73 60 4 -4 12 -25 18
-47z m-105 -356 c-87 -87 -159 -157 -160 -156 -1 1 8 39 20 85 l22 82 124 125
125 125 13 -52 13 -52 -157 -157z m195 16 c1 -13 -61 -82 -182 -203 l-183
-182 -16 28 c-10 17 -15 38 -11 53 3 13 87 106 187 207 l181 182 12 -32 c6
-18 12 -42 12 -53z m736 -85 l-80 -80 -65 0 -65 0 80 80 80 80 65 0 65 0 -80
-80z m200 0 l-80 -80 -65 0 -65 0 80 80 80 80 65 0 65 0 -80 -80z m-898 -43
l13 -42 -169 -169 -169 -169 -26 39 -26 39 177 177 c97 97 179 175 182 172 3
-3 11 -24 18 -47z m37 -134 c4 -16 9 -36 12 -46 4 -14 -32 -56 -142 -168 -82
-82 -151 -149 -155 -149 -4 0 -17 17 -29 37 l-21 36 158 159 c87 87 161 158
164 158 4 0 10 -12 13 -27z"/>
<path d="M4496 650 c-339 -338 -622 -623 -627 -632 -8 -15 -5 -18 18 -18 23 0
123 95 611 583 321 320 592 594 603 610 11 15 19 37 17 50 -4 18 -106 -80
-622 -593z"/>
<path d="M4596 550 c-284 -283 -522 -523 -527 -533 -8 -14 -5 -17 18 -17 23 0
108 81 511 483 266 265 492 494 503 510 11 15 19 37 17 50 -4 18 -89 -62 -522
-493z"/>
<path d="M4696 450 c-229 -228 -422 -423 -427 -432 -8 -15 -5 -18 18 -18 22 0
93 66 411 383 211 210 392 394 403 410 11 15 19 37 17 50 -4 18 -72 -45 -422
-393z"/>
<path d="M4796 350 c-174 -173 -322 -323 -327 -332 -8 -15 -5 -18 17 -18 23 0
80 52 312 282 156 156 293 295 303 311 11 15 19 37 17 50 -4 18 -54 -28 -322
-293z"/>
<path d="M4896 250 c-119 -118 -222 -223 -227 -232 -8 -15 -5 -18 17 -18 21 0
65 37 211 183 205 202 226 227 221 260 -3 19 -37 -11 -222 -193z"/>
<path d="M4996 150 c-136 -133 -149 -150 -111 -150 18 0 49 23 111 82 102 98
127 130 122 161 -3 19 -19 7 -122 -93z"/>
</g>
</svg>
